<svg width="232" height="190" fill="none" xmlns="http://www.w3.org/2000/svg">
<path d="M230.805 25.0413C217.751 12.5198 200.782 4.34296 182.973 1.33043C165.062 -1.6821 146.434 0.367229 129.895 8.03176C113.89 15.4504 100.385 27.9309 91.0605 42.8501C86.388 50.3097 82.7606 58.466 80.3834 66.9503C77.9856 75.4961 76.7356 84.5951 77.3299 93.4688C77.9447 102.609 80.6907 112.097 87.515 118.594C94.7492 125.438 104.566 129.558 114.382 130.808C124.321 132.058 134.793 131.095 144.077 127.221C148.196 125.5 152.151 123.328 155.348 120.192C158.197 117.405 160.554 114.024 162.296 110.437C165.574 103.715 167.48 94.9648 163.464 88.12C161.394 84.5951 157.828 81.931 154.447 79.7382C150.512 77.197 146.188 75.1272 141.72 73.7746C137.314 72.4425 132.56 72.0736 127.99 71.7867C122.907 71.4793 117.825 71.5203 112.742 71.8892C102.598 72.6475 92.5359 74.6763 82.904 77.9758C73.4975 81.1932 64.1936 85.5173 56.0782 91.2965C48.2497 96.8502 41.6918 103.941 36.384 111.913C24.5593 129.64 19.6204 150.768 17.2432 171.672C16.6284 177.082 16.1775 182.492 15.8086 187.923C15.7267 189.03 16.8128 189.972 17.858 189.972C19.0261 189.972 19.8253 189.03 19.9073 187.923C21.3418 167.081 23.9036 145.665 32.8592 126.545C36.6915 118.368 41.5894 110.663 47.7374 104.043C54.0494 97.26 61.5499 92.1162 69.7882 87.9356C87.0027 79.1849 106.594 74.9632 125.879 75.783C130.305 75.9674 134.916 76.2338 139.22 77.3404C143.319 78.4061 147.233 80.189 150.86 82.3408C154.016 84.2262 157.644 86.665 159.611 89.698C161.353 92.3621 161.783 95.4566 161.558 98.6741C161.025 105.724 157.152 112.938 151.987 117.753C149.036 120.52 145.184 122.487 141.372 123.922C136.904 125.602 132.191 126.627 127.457 127.016C118.091 127.795 108.521 126.525 100.057 122.283C95.9789 120.254 92.0441 117.63 88.9906 114.229C86.2445 111.155 84.3796 107.384 83.191 103.449C80.7318 95.2722 80.8957 86.3781 82.1867 77.9963C83.4573 69.7579 85.9575 61.6835 89.5644 54.1419C96.7166 39.1408 107.967 26.0659 121.985 17.0898C136.412 7.84731 153.381 3.52321 170.472 4.1585C187.502 4.7938 204.327 10.3065 218.304 20.0614C221.706 22.4386 224.903 25.0823 227.895 27.9513C229.821 29.7548 232.711 26.8652 230.805 25.0413Z" fill="#231F20"/>
<path d="M1.44251 178.783C1.70893 178.865 1.95491 178.967 2.22132 179.07C2.05738 179.008 1.89345 178.926 1.7295 178.865C3.43045 179.603 4.94697 180.709 6.44298 181.775C8.02098 182.881 9.57845 184.009 11.136 185.156C12.0172 185.812 12.8984 186.488 13.7796 187.165C13.6361 187.062 13.5132 186.96 13.3697 186.837C14.3944 187.615 15.378 188.456 16.4232 189.214C17.6938 190.157 19.4563 190.3 20.7884 189.378C21.7311 188.722 22.4893 187.82 23.3295 187.021C24.0878 186.283 24.8665 185.566 25.6658 184.89C26.5675 184.111 27.4897 183.353 28.4119 182.636C28.2684 182.738 28.1454 182.84 28.002 182.963C30.5432 180.996 33.2279 179.254 36.056 177.717C36.8552 177.287 37.6749 176.856 38.5152 176.447C38.966 176.242 39.3348 175.688 39.4578 175.217C39.6012 174.725 39.5398 174.069 39.2528 173.639C38.9659 173.209 38.5561 172.819 38.0232 172.696C37.4699 172.573 36.9576 172.655 36.4453 172.901C31.158 175.483 26.2601 178.824 21.9155 182.759C21.3212 183.291 20.7474 183.845 20.1736 184.398C19.6202 184.951 19.0874 185.566 18.4726 186.058C18.616 185.955 18.739 185.853 18.8824 185.73C18.7185 185.853 18.5545 185.955 18.3496 186.058C18.5135 185.996 18.6775 185.915 18.8415 185.853C18.698 185.915 18.5546 185.956 18.4111 185.976C18.5956 185.956 18.7799 185.935 18.9644 185.894C18.8414 185.914 18.698 185.914 18.575 185.894C18.7595 185.914 18.9439 185.935 19.1284 185.976C18.9849 185.956 18.862 185.915 18.739 185.874C18.903 185.935 19.0669 186.017 19.2308 186.078C18.9439 185.956 18.698 185.792 18.452 185.607C18.5955 185.71 18.7185 185.812 18.8619 185.935C14.8247 182.8 10.8081 179.644 6.54545 176.836C5.31585 176.016 4.02472 175.319 2.61068 174.848C2.11884 174.684 1.46301 174.807 1.03264 175.053C0.602283 175.299 0.192495 175.791 0.0900282 176.283C-0.237866 177.389 0.356362 178.414 1.44251 178.783Z" fill="#231F20"/>
</svg>
