<svg width="84" height="95" fill="none" xmlns="http://www.w3.org/2000/svg">
<path d="M17.6802 77.1195C24.1315 71.4329 30.7802 65.9438 36.9929 60.0103C45.9374 51.4597 54.9067 42.8928 63.2341 33.7579C70.1544 26.1703 76.0049 17.6527 77.1981 6.92137C77.3791 5.29191 76.7538 3.4485 77.3298 2.04124C77.7577 1.01255 79.7079 -0.188977 80.6871 0.0249914C81.9132 0.288337 83.6164 1.81907 83.781 2.98766C84.6615 9.18452 82.7853 15.011 79.9711 20.3849C72.9192 33.8567 62.6169 44.7773 51.607 55.0232C43.2055 62.8412 34.5572 70.3959 25.9912 78.0412C23.8682 79.934 21.63 81.6952 19.2519 83.6702C23.5555 83.3081 27.497 82.9625 31.4468 82.6415C31.9405 82.6004 32.5659 82.5099 32.9362 82.7485C34.0717 83.4892 35.1085 84.3862 36.1865 85.2174C35.2484 86.0815 34.4502 87.39 33.3476 87.7274C31.06 88.4187 28.5585 88.394 26.2463 89.0359C19.4988 90.9123 12.8253 93.0931 6.05314 94.8707C4.67896 95.2328 2.64646 94.8048 1.51091 93.9572C-0.0936833 92.7639 -0.521591 90.69 0.720936 88.789C2.90976 85.4314 5.29608 82.2054 7.36971 78.7819C8.43943 77.0125 8.95783 74.914 9.83007 73.0047C10.6118 71.2847 11.1467 68.8652 12.5126 68.1575C13.7305 67.5238 16.4953 68.2728 17.5979 69.3837C19.3424 71.1366 19.0379 73.6466 17.4498 75.7534C17.2852 75.9674 17.3017 76.313 17.2359 76.601C17.384 76.7738 17.5321 76.9384 17.6802 77.1113V77.1195Z" fill="black"/>
</svg>
