<svg width="157" height="138" viewBox="0 0 157 138" fill="none" xmlns="http://www.w3.org/2000/svg">
<path d="M72.269 1.58547C72.4684 4.40387 72.424 7.24283 72.136 10.0407C72.0917 10.3904 72.0695 10.7401 72.003 11.0693C71.9808 11.2338 71.9587 11.3984 71.9366 11.563C71.9144 11.8099 72.003 11.1721 71.9366 11.5424C71.9144 11.6453 71.9144 11.7687 71.8922 11.8716C71.7814 12.571 71.6485 13.2705 71.5155 13.9699C71.2275 15.3689 70.8508 16.7678 70.4076 18.1256C70.186 18.7633 69.9644 19.401 69.7206 20.0388C69.5876 20.3473 69.4768 20.6559 69.3217 20.9645C69.2995 21.0262 69.2109 21.1291 69.2109 21.2114C69.2109 21.0057 69.3439 20.944 69.2552 21.088C69.1666 21.2525 69.1001 21.4171 69.0114 21.5817C68.4796 22.672 67.837 23.7212 67.1279 24.7087C66.9728 24.935 66.7955 25.1612 66.6183 25.3875C66.5296 25.511 66.4188 25.6344 66.3301 25.7578C66.2858 25.799 66.2415 25.8607 66.2193 25.9018C66.4409 25.5315 66.308 25.799 66.2415 25.8813C65.8426 26.3544 65.3995 26.8276 64.9563 27.2802C64.5131 27.7122 64.0699 28.1237 63.5823 28.5351C63.3608 28.7203 63.1171 28.9054 62.8733 29.0905C62.7625 29.1728 62.6517 29.2551 62.5409 29.3374C62.3636 29.4609 62.8733 29.0905 62.6073 29.2963C62.5187 29.358 62.4522 29.3991 62.3636 29.4609C61.7874 29.8517 61.1891 30.222 60.5686 30.5512C59.9482 30.8803 59.3056 31.1272 58.663 31.4358C58.6851 31.4152 59.0396 31.2918 58.7959 31.3741C58.7072 31.4152 58.6186 31.4358 58.53 31.4769C58.3527 31.5387 58.1755 31.6004 57.976 31.6621C57.6436 31.7649 57.3112 31.8678 56.9567 31.9501C56.2697 32.1352 55.5606 32.2587 54.8515 32.341C54.4748 32.3821 54.0316 32.7524 53.8543 33.0404C53.677 33.349 53.6106 33.6782 53.6549 34.0279C53.7657 34.7685 54.4526 35.3651 55.2947 35.3651C56.9123 35.3445 58.53 35.3445 60.1476 35.4474C60.5243 35.4679 60.8789 35.5091 61.2556 35.5502C61.2778 35.5502 61.6767 35.6119 61.4108 35.5708C61.1227 35.5297 61.5215 35.5914 61.5658 35.5914C61.7652 35.612 61.9647 35.6531 62.1642 35.6942C62.9619 35.8383 63.7375 36.0234 64.4909 36.2497C64.6239 36.2908 64.779 36.3525 64.9119 36.3937C64.9784 36.4143 65.067 36.4554 65.1335 36.476C65.2665 36.5171 65.3995 36.6406 65.0449 36.4348C65.3108 36.5994 65.6432 36.6817 65.9313 36.8257C66.4853 37.0932 67.0171 37.3812 67.5046 37.7103C67.6376 37.7926 67.7705 37.8749 67.9035 37.9778C67.9478 38.0189 68.0143 38.0601 68.0586 38.0806C68.2802 38.2246 67.97 38.0189 67.9478 37.9983C68.1694 38.2041 68.4575 38.3892 68.7012 38.5744C69.1887 38.9858 69.6541 39.3972 70.0972 39.8498C70.2967 40.0556 70.4961 40.2613 70.6734 40.467C70.7621 40.5699 70.8508 40.6727 70.9616 40.7961C71.0945 40.9607 70.7178 40.4876 70.9172 40.7344C70.9837 40.8167 71.0279 40.8784 71.0944 40.9607C71.4711 41.4339 71.8036 41.9276 72.136 42.4214C72.4684 42.9357 72.7786 43.4705 73.0667 44.0054C73.1997 44.2729 73.3326 44.5403 73.4655 44.8077C73.4877 44.8694 73.5098 44.9312 73.5542 44.9723C73.3769 44.5815 73.4877 44.8077 73.532 44.9106C73.5985 45.0752 73.665 45.2192 73.7315 45.3838C74.2412 46.6181 74.6178 47.873 74.9059 49.1485C74.9946 49.5188 75.061 49.8685 75.1275 50.2388C75.1497 50.3828 75.1718 50.5474 75.2161 50.6914C75.2383 50.8148 75.2605 50.9177 75.2605 51.0411C75.2605 50.9794 75.2383 50.9177 75.2383 50.856C75.2383 50.9383 75.2605 51 75.2605 51.0823C75.3491 51.8229 75.4378 52.5429 75.4821 53.2835C75.7258 56.6779 75.5042 60.0929 75.2605 63.4668C75.2162 64.2279 75.9253 64.8862 76.7009 64.9891C77.5208 65.092 78.2741 64.6188 78.5179 63.8782C80.2685 58.7146 80.4902 53.2629 81.7976 48.017C82.0856 46.8444 82.418 45.6718 82.8612 44.5197C82.9498 44.2729 83.0607 44.026 83.1493 43.7997C83.1936 43.6763 83.2822 43.5528 83.3266 43.4088C83.3266 43.4294 83.1714 43.7586 83.2822 43.5323C83.3044 43.4706 83.3488 43.3883 83.3709 43.3265C83.6147 42.8328 83.8584 42.3596 84.1243 41.8865C84.6562 40.9402 85.2766 40.035 85.9635 39.1915C86.0079 39.1504 86.0522 39.0887 86.0743 39.0475C85.8527 39.3561 85.9192 39.2327 85.9857 39.1504C86.0743 39.0475 86.163 38.9446 86.2517 38.8418C86.4289 38.6361 86.6283 38.4303 86.8277 38.2246C87.2044 37.8337 87.6034 37.4635 88.0023 37.1343C88.246 36.9286 88.4676 36.7434 88.7335 36.5583C88.7778 36.5171 88.8222 36.4966 88.8886 36.4554C88.4898 36.7434 88.7778 36.5377 88.8443 36.476C88.9772 36.3937 89.0881 36.3114 89.221 36.2291C89.7085 35.9205 90.2182 35.6325 90.75 35.3857C90.883 35.3239 91.0381 35.2622 91.171 35.2005C91.2375 35.1799 91.2819 35.1594 91.3484 35.1388C91.6586 35.0154 91.0159 35.2622 91.304 35.1594C91.5921 35.0565 91.8802 34.9536 92.1904 34.8714C92.5006 34.7891 92.7887 34.7068 93.099 34.645C93.2319 34.6245 93.387 34.5833 93.52 34.5628C93.6529 34.5422 94.2734 34.4599 93.6972 34.5216C94.1404 34.4599 94.5615 34.3982 94.8717 34.069C95.1155 33.8222 95.2706 33.5341 95.3371 33.1844C95.4479 32.485 94.9603 31.6415 94.1404 31.4975C93.4978 31.3741 92.8552 31.2301 92.2126 31.0449C91.9245 30.9626 91.6585 30.8598 91.3704 30.7775C91.2153 30.7158 91.0603 30.654 90.9052 30.6129C91.4149 30.798 90.8386 30.5717 90.7057 30.5306C89.5312 30.0163 88.4011 29.3991 87.3596 28.6791C87.3153 28.638 87.2488 28.5968 87.2045 28.5762C86.9829 28.4117 87.2931 28.638 87.3153 28.6585C87.2045 28.5557 87.0494 28.4734 86.9165 28.3705C86.6505 28.1648 86.4067 27.9797 86.1629 27.7739C85.6754 27.3625 85.1879 26.9305 84.7448 26.4573C84.3016 26.0047 83.8806 25.5521 83.4595 25.079C83.4152 25.0172 83.3709 24.9555 83.3044 24.8938C83.3265 24.9144 83.5482 25.1818 83.3709 24.9761C83.2601 24.8527 83.1714 24.7292 83.0606 24.6058C82.8612 24.3589 82.6618 24.0915 82.4845 23.8446C81.7533 22.8366 81.1106 21.7668 80.5344 20.6765C80.4015 20.4091 80.2686 20.1622 80.1356 19.8948C80.0913 19.833 80.0691 19.7508 80.047 19.689C79.9362 19.4627 80.0912 19.7713 80.0912 19.7919C80.0248 19.6068 79.9361 19.4422 79.8696 19.2776C79.6259 18.7221 79.4043 18.1461 79.1827 17.5701C78.252 15.0397 77.5651 12.427 77.0111 9.7938C76.7008 8.33317 76.4128 6.85197 76.1691 5.37077C76.0583 4.67131 75.9475 3.99243 75.8367 3.29298C75.7923 2.94325 75.7258 2.61409 75.6815 2.26436C75.6593 2.14093 75.5707 1.5649 75.6593 2.07921C75.6372 1.89406 75.615 1.72949 75.5929 1.54434C75.5264 1.11232 75.4377 0.762581 75.1053 0.453998C74.8173 0.186559 74.352 -0.0191537 73.9309 0.00141857C73.5099 0.0219908 73.0445 0.145414 72.7564 0.453998C72.4683 0.783153 72.2025 1.1946 72.269 1.58547C73.0445 6.99597 73.9309 12.4682 75.7259 17.6729C77.4543 22.6309 80.2686 27.3625 84.6783 30.6746C87.1824 32.5467 90.0631 33.9867 93.2319 34.5422C93.3871 33.5341 93.52 32.5261 93.6751 31.5181C92.3012 31.6827 91.0381 32.0118 89.7528 32.5261C88.6227 32.9787 87.5812 33.5959 86.6061 34.3159C84.7004 35.6942 83.1271 37.484 81.8862 39.3973C80.5788 41.3928 79.6259 43.594 78.9833 45.8569C78.2077 48.5313 77.7645 51.288 77.3213 54.0241C76.8338 57.1099 76.3241 60.1958 75.3047 63.1788C76.3906 63.3228 77.4764 63.4462 78.5623 63.5902C78.9833 57.5008 79.36 51.1234 77.1441 45.2603C75.3048 40.3641 71.6927 35.7765 66.4409 33.7193C62.9175 32.341 59.0618 32.2998 55.2947 32.341C55.4498 33.349 55.5828 34.357 55.7379 35.3651C61.3221 34.645 66.0864 31.2918 69.3438 27.1773C72.9559 22.6103 74.5292 16.8707 75.2827 11.3161C75.7259 8.08631 75.8145 4.83588 75.5707 1.60604C75.5042 0.803721 74.8394 0.0219757 73.9087 0.0631202C73.0667 0.0836924 72.2025 0.721437 72.269 1.58547Z" fill="white"/>
<path d="M10.7315 43.4088C11.1082 44.9517 11.4406 46.5152 11.7287 48.0787C11.8838 48.8399 12.0168 49.6011 12.1276 50.3622C12.1941 50.7531 12.2605 51.1234 12.3048 51.5143C12.327 51.6788 12.3491 51.864 12.3713 52.0286C12.4156 52.3166 12.3713 52.0492 12.3713 52.008C12.3934 52.1314 12.4156 52.2549 12.4156 52.3989C12.8588 55.5053 13.1247 58.6117 13.2577 61.7387C13.3241 63.0759 13.3242 64.3925 13.2356 65.7297C13.2134 66.0383 13.1912 66.3469 13.1469 66.6555C13.1247 66.82 13.1026 66.9846 13.0804 67.1492C13.0583 67.3137 13.1247 67.4372 13.0804 67.108C13.1026 67.2109 13.0361 67.3343 13.0361 67.4372C12.9253 68.0749 12.7923 68.6921 12.5929 69.3093C12.5042 69.6178 12.3935 69.9059 12.2827 70.2144C12.2383 70.3379 12.1498 70.4819 12.1276 70.6053C12.2162 70.2967 12.2162 70.4407 12.1719 70.523C12.1275 70.6259 12.0832 70.7082 12.0389 70.811C11.7286 71.4076 11.3741 71.9631 10.9531 72.4979C10.8423 72.6214 10.7537 72.7654 10.6429 72.8888C10.665 72.8477 10.8645 72.6214 10.6872 72.8271C10.6429 72.8888 10.5985 72.9505 10.5321 72.9917C10.3105 73.2591 10.0667 73.5266 9.82292 73.794C9.35757 74.2877 8.84796 74.7815 8.33829 75.2546C7.7843 75.7689 7.20809 76.2421 6.60978 76.7153C6.29954 76.9621 5.98935 77.209 5.65696 77.4353C5.59048 77.497 5.50184 77.5587 5.43536 77.5999C5.39104 77.6204 5.12513 77.8262 5.32456 77.6822C5.54616 77.5382 5.23593 77.7439 5.21377 77.7645C5.12513 77.8262 5.01437 77.8879 4.92574 77.9702C3.59616 78.8754 2.22227 79.7188 0.826213 80.5211C0.227904 80.8708 -0.171055 81.6114 0.0727007 82.2698C0.294297 82.8869 0.936968 83.4424 1.66823 83.4012C3.06429 83.3189 4.46034 83.2572 5.87855 83.319C6.80926 83.3601 7.73996 83.4424 8.6485 83.5453C9.15817 83.5864 9.64564 83.6275 10.1553 83.6687C10.3104 83.6687 10.4656 83.6892 10.6207 83.7098C10.665 83.7098 10.6872 83.7098 10.7315 83.7304C10.9088 83.751 10.8644 83.751 10.5985 83.7098C10.6428 83.7304 10.7537 83.7304 10.798 83.7304C11.1526 83.7921 11.5071 83.8538 11.8616 83.9567C12.1719 84.039 12.4821 84.1419 12.7702 84.2447C12.8588 84.2653 12.9253 84.3064 13.014 84.327C13.2356 84.4093 12.615 84.1624 12.9474 84.3064C13.1247 84.3887 13.2799 84.4504 13.4572 84.5327C14.0776 84.8207 14.6538 85.1499 15.2078 85.5202C15.2742 85.5613 15.3407 85.623 15.4072 85.6642C15.6509 85.8288 15.3407 85.6231 15.3186 85.6025C15.385 85.7053 15.6287 85.8288 15.7174 85.9111C16.0055 86.1374 16.2714 86.3636 16.5373 86.5899C17.047 87.0425 17.5567 87.5363 17.9999 88.03C18.2215 88.2769 18.4431 88.5237 18.6425 88.7706C18.8863 89.0586 18.4209 88.4826 18.6425 88.7706C18.6868 88.8323 18.7312 88.8735 18.7755 88.9352C18.9084 89.0997 19.0413 89.2643 19.1521 89.4289C19.5732 89.9844 19.972 90.5398 20.3487 91.1158C21.1686 92.3707 21.9221 93.6874 22.609 95.004C22.9858 95.724 23.3625 96.4646 23.717 97.1846C23.8057 97.3492 23.8722 97.5138 23.9608 97.6784C24.0051 97.7607 24.0495 97.8635 24.0938 97.9458C24.2046 98.2133 24.0938 97.9664 24.0716 97.9047C24.271 98.3161 24.4261 98.7276 24.6034 99.139C26.0438 102.513 27.1518 105.99 27.9273 109.549C28.0825 110.31 28.991 110.742 29.7445 110.659C30.6309 110.557 31.0962 109.919 31.1848 109.137C31.9604 102.945 30.2762 96.7938 30.6751 90.5809C30.6973 90.0872 30.7638 89.5935 30.8081 89.1203C30.8302 88.9969 30.8524 88.8734 30.8524 88.75C30.8746 88.5443 30.7859 89.1821 30.8303 88.8735C30.8303 88.8118 30.8524 88.7706 30.8524 88.7089C30.8968 88.4414 30.941 88.174 30.9853 87.9066C31.1848 86.8574 31.4507 85.8082 31.7609 84.8002C31.9382 84.2653 32.1155 83.7304 32.3149 83.1955C32.4035 82.9486 32.4922 82.7224 32.603 82.4961C32.6474 82.3726 32.7138 82.2492 32.7581 82.1258C32.8689 81.8995 32.7138 82.2286 32.6917 82.2492C32.736 82.1669 32.7581 82.0846 32.8024 82.0023C33.2678 81.0354 33.7996 80.0891 34.4422 79.2045C34.5974 78.9782 34.7747 78.7519 34.952 78.5256C34.9741 78.4845 35.1735 78.2582 34.974 78.4845C34.7968 78.7108 34.9963 78.4639 35.0406 78.4228C35.1292 78.3199 35.2178 78.217 35.3286 78.1142C35.7053 77.7027 36.1264 77.3119 36.5696 76.9621C36.6804 76.8593 36.8134 76.777 36.9242 76.6947C37.0793 76.5713 36.6139 76.9004 36.7912 76.7976C36.8577 76.7564 36.9241 76.7153 36.9906 76.6536C37.2343 76.5095 37.456 76.3655 37.7219 76.2215C37.9657 76.0981 38.2094 75.9747 38.4531 75.8718C38.4975 75.8512 38.7634 75.7484 38.4753 75.8512C38.2094 75.9541 38.431 75.8718 38.4975 75.8512C38.6526 75.7895 38.8077 75.7484 38.9628 75.7072C39.6276 75.5015 40.2259 74.9049 40.1815 74.226C40.1372 73.5266 39.694 72.9711 38.9628 72.7448C36.1263 71.8602 33.157 71.4899 30.2985 70.6464C29.9661 70.5436 29.6337 70.4407 29.3013 70.3173C29.2348 70.2967 29.1682 70.2762 29.1018 70.2556C29.0574 70.235 28.7694 70.091 29.0131 70.2144C29.2569 70.3379 28.9688 70.1939 28.9245 70.1733C28.8359 70.1322 28.7251 70.091 28.6365 70.0499C27.9939 69.7824 27.3955 69.4533 26.8194 69.083C26.7307 69.0212 26.642 68.9595 26.5534 68.9184C26.354 68.795 26.5978 68.9801 26.6421 68.9801C26.5756 69.0007 26.2875 68.7127 26.221 68.6509C25.9329 68.4041 25.6449 68.1572 25.379 67.8898C25.1574 67.6635 24.9358 67.4166 24.7142 67.1698C24.6034 67.0463 24.4926 66.9229 24.3818 66.7994C24.6699 67.108 24.4926 66.9229 24.4262 66.8406C24.3597 66.7583 24.2932 66.6554 24.2046 66.5732C23.4068 65.5651 22.742 64.4954 22.1437 63.3845C21.9886 63.0965 21.8556 62.829 21.7227 62.541C21.6562 62.4176 21.5897 62.2941 21.5454 62.1501C21.5011 62.0884 21.4789 62.0061 21.4346 61.9444C21.3017 61.6564 21.5676 62.2324 21.4346 61.965C21.1687 61.3684 20.9249 60.7512 20.6811 60.1546C19.6839 57.6037 18.9084 54.9704 18.0441 52.3783C16.8475 48.881 15.4515 45.4455 13.6344 42.1951C13.2355 41.475 12.0833 41.2076 11.352 41.6396C10.5543 42.1128 10.3326 42.9768 10.7537 43.7585C11.1969 44.5403 11.6179 45.3426 12.0168 46.1449C12.1941 46.5152 12.3935 46.8855 12.5486 47.2558C12.5265 47.2147 12.4156 46.9473 12.5264 47.2147C12.5707 47.297 12.6151 47.3998 12.6594 47.4821C12.748 47.6878 12.8366 47.8936 12.9253 48.0787C13.5457 49.5188 14.0997 50.9794 14.6094 52.4606C15.5401 55.1144 16.3379 57.8094 17.3129 60.4426C18.2436 62.9524 19.3738 65.4417 20.9914 67.6429C21.8557 68.8155 22.8306 70.0087 24.0272 70.9139C25.3125 71.9219 26.7308 72.642 28.3041 73.1974C31.4508 74.3289 34.8633 74.658 38.0543 75.6455C38.0543 74.658 38.0543 73.6706 38.0543 72.6625C33.2235 74.1026 30.4535 78.5668 28.9245 82.7635C28.1268 84.9236 27.6393 87.1865 27.3955 89.4495C27.0853 92.3707 27.3068 95.3331 27.5728 98.2544C27.883 101.855 28.2597 105.455 27.8165 109.055C28.9024 108.911 29.9882 108.787 31.074 108.643C30.3649 105.414 29.3677 102.225 28.1268 99.139C26.8637 96.0326 25.379 92.9673 23.584 90.0872C22.055 87.6597 20.2158 85.2939 17.8669 83.5041C16.5817 82.5372 15.252 81.7555 13.7008 81.2C12.327 80.6857 10.8866 80.5417 9.42409 80.4183C8.36043 80.336 7.31897 80.2126 6.25531 80.1508C4.68198 80.0685 3.13077 80.1302 1.55744 80.2125C1.84551 81.1794 2.11138 82.1258 2.39946 83.0926C5.01429 81.5909 7.56266 79.9451 9.8451 77.9907C12.1054 76.0364 14.2106 73.794 15.3407 71.0991C16.4266 68.5069 16.6038 65.6063 16.5373 62.829C16.4709 59.6814 16.2049 56.5339 15.806 53.4275C15.3407 49.7656 14.6759 46.1038 13.8116 42.5036C13.6122 41.7219 12.5929 41.187 11.773 41.4339C10.9974 41.7836 10.5099 42.5654 10.7315 43.4088Z" fill="white"/>
<path d="M97.9074 84.8413C98.2177 85.9728 98.4615 87.1042 98.6388 88.2769C98.6166 88.1329 98.5944 88.0094 98.5722 87.8654C98.9046 90.1489 98.949 92.4942 98.6166 94.7777C98.6387 94.6337 98.6608 94.5102 98.683 94.3662C98.4171 96.2177 97.9074 98.0281 97.1318 99.7356C97.1983 99.6122 97.2427 99.4887 97.3092 99.3653C96.9325 100.188 96.5115 100.991 96.0018 101.752C95.758 102.143 95.4699 102.533 95.1818 102.904C95.0489 103.068 94.916 103.233 94.783 103.397C95.1376 102.965 94.8495 103.315 94.7608 103.418C94.6722 103.521 94.5835 103.624 94.4949 103.706C93.8744 104.405 93.1653 105.043 92.4341 105.64C92.2568 105.784 92.0574 105.928 91.8801 106.072C91.7693 106.154 91.3925 106.422 91.8579 106.092C91.7471 106.154 91.6585 106.236 91.5477 106.319C91.1267 106.607 90.6835 106.874 90.2403 107.142C89.3982 107.615 88.5561 108.026 87.6476 108.376C87.7805 108.314 87.9135 108.273 88.0464 108.211C87.4038 108.458 86.7612 108.705 86.1186 108.973C85.6754 109.158 85.2544 109.322 84.922 109.631C84.1686 110.289 84.3015 111.421 85.077 111.976C85.4759 112.264 86.0078 112.346 86.4732 112.47C87.2709 112.696 88.0686 112.964 88.8442 113.272C88.7112 113.21 88.5783 113.169 88.4453 113.108C90.5505 113.951 92.5892 115 94.4063 116.276C94.4506 116.317 94.4949 116.337 94.5392 116.379C94.1625 116.111 94.3176 116.235 94.4063 116.276C94.517 116.358 94.6057 116.42 94.7165 116.502C94.9159 116.646 95.1154 116.811 95.2926 116.955C95.625 117.243 95.9574 117.531 96.2676 117.86C96.4228 118.004 96.5557 118.168 96.7108 118.333C96.7773 118.415 96.8438 118.497 96.9102 118.58C96.9767 118.662 97.0876 118.806 96.7774 118.436C96.8217 118.497 96.8659 118.539 96.9102 118.6C97.1762 118.929 97.4422 119.279 97.6638 119.65C98.2399 120.493 98.7052 121.398 99.1484 122.324C99.0819 122.2 99.0376 122.077 98.9711 121.954C100.567 125.492 101.298 129.298 102.007 133.063C102.184 134.071 102.384 135.079 102.583 136.087C102.65 136.436 103.026 136.848 103.337 137.012C103.669 137.177 104.024 137.239 104.4 137.198C105.22 137.095 105.818 136.457 105.841 135.675C105.907 133.968 105.974 132.26 106.04 130.532C106.107 128.886 106.106 127.22 106.35 125.574C106.328 125.718 106.306 125.842 106.284 125.986C106.505 124.566 106.838 123.147 107.237 121.768C107.436 121.09 107.658 120.411 107.879 119.732C108.079 119.176 108.256 118.6 108.5 118.045C108.433 118.168 108.389 118.292 108.322 118.415C108.633 117.757 109.032 117.14 109.497 116.564C109.563 116.481 109.63 116.399 109.696 116.296C109.851 116.111 109.408 116.625 109.652 116.337C109.807 116.152 109.962 115.988 110.117 115.802C110.405 115.473 110.716 115.165 111.026 114.856C111.691 114.218 112.4 113.601 113.131 113.005C113.308 112.861 113.486 112.737 113.663 112.593C113.752 112.532 113.84 112.47 113.929 112.388C113.973 112.346 114.017 112.305 114.084 112.285C114.017 112.326 113.752 112.532 113.951 112.367C114.306 112.12 114.682 111.873 115.037 111.626C115.768 111.174 116.522 110.742 117.341 110.433C117.208 110.495 117.076 110.536 116.943 110.598C117.009 110.577 117.076 110.557 117.142 110.515C117.541 110.371 117.918 110.166 118.139 109.816C118.316 109.507 118.383 109.178 118.339 108.829C118.228 108.067 117.541 107.491 116.699 107.491C116.322 107.491 115.945 107.471 115.591 107.43C115.746 107.45 115.879 107.471 116.034 107.491C115.303 107.388 114.571 107.203 113.885 106.936C114.017 106.998 114.15 107.039 114.283 107.1C113.862 106.936 113.463 106.751 113.087 106.524C112.887 106.422 112.71 106.298 112.511 106.195C112.422 106.134 112.311 106.072 112.223 106.01C112.178 105.99 112.134 105.948 112.09 105.928C112.067 105.907 112.045 105.887 112.023 105.887C111.868 105.763 112.245 106.051 112.223 106.031C111.469 105.455 110.76 104.838 110.095 104.159C109.94 103.973 109.763 103.809 109.608 103.624C109.541 103.541 109.453 103.439 109.386 103.356C109.209 103.151 109.563 103.562 109.497 103.48C109.453 103.418 109.408 103.377 109.364 103.315C109.032 102.924 108.743 102.513 108.433 102.101C107.813 101.237 107.259 100.332 106.749 99.4064C106.151 98.3367 105.597 97.2258 105.087 96.1149C105.154 96.2383 105.198 96.3618 105.264 96.4852C103.78 93.2142 102.627 89.7992 101.675 86.3431C101.453 85.5407 101.254 84.759 101.054 83.9567C100.855 83.1749 99.8353 82.6401 99.0154 82.8869C98.1733 83.2161 97.6858 83.9978 97.9074 84.8413C98.3728 86.7134 98.8825 88.5854 99.4808 90.4369C100.168 92.597 100.966 94.7571 101.874 96.8555C102.849 99.0567 103.935 101.237 105.309 103.253C106.528 105.064 107.99 106.833 109.785 108.17C110.649 108.808 111.558 109.405 112.577 109.816C113.707 110.269 114.815 110.557 116.056 110.659C116.3 110.68 116.544 110.68 116.765 110.68C116.61 109.672 116.477 108.664 116.322 107.656C114.505 108.314 112.932 109.343 111.425 110.474C109.918 111.606 108.5 112.881 107.303 114.301C106.705 115 106.151 115.7 105.708 116.502C105.198 117.448 104.866 118.477 104.533 119.485C103.735 121.933 103.093 124.422 102.893 126.973C102.783 128.413 102.76 129.874 102.716 131.314C102.672 132.795 102.605 134.256 102.561 135.737C103.647 135.593 104.733 135.47 105.818 135.326C105.021 131.232 104.422 127.076 103.004 123.126C102.273 121.131 101.364 119.135 100.035 117.407C99.37 116.523 98.6166 115.7 97.7746 114.959C96.7995 114.136 95.7136 113.396 94.6057 112.737C93.3869 111.997 92.1017 111.338 90.7721 110.783C90.0187 110.454 89.2431 110.166 88.4453 109.898C87.8027 109.693 87.16 109.528 86.5174 109.343C86.6504 109.405 86.7834 109.446 86.9164 109.507C87.1158 109.693 87.293 109.857 87.4924 110.042C87.5589 110.166 87.6033 110.289 87.6698 110.413C87.6919 110.557 87.714 110.68 87.7362 110.824C87.714 110.968 87.6919 111.091 87.6698 111.235C87.6033 111.359 87.5589 111.482 87.4924 111.606C87.3595 111.791 87.1822 112.017 86.9828 112.099C87.0271 112.079 87.0493 112.058 87.0936 112.038C87.2044 111.976 87.3152 111.935 87.426 111.873C87.7362 111.729 88.0686 111.606 88.401 111.482C88.268 111.544 88.1351 111.585 88.0022 111.647C88.9107 111.297 89.8414 110.947 90.7277 110.515C91.7471 110.022 92.6999 109.446 93.6085 108.808C95.5364 107.43 97.1984 105.804 98.5058 103.912C101.032 100.312 102.14 95.9503 102.162 91.6918C102.162 89.1409 101.785 86.5694 101.121 84.1007C100.899 83.3189 99.924 82.7635 99.0819 83.0309C98.1956 83.2161 97.6637 83.9978 97.9074 84.8413Z" fill="white"/>
<path d="M120.356 30.2632C120.533 31.0243 120.688 31.7855 120.821 32.5467C120.887 32.917 120.954 33.3079 121.02 33.6987C121.042 33.8222 121.153 34.3982 121.065 33.9456C121.109 34.1719 121.131 34.3982 121.153 34.6039C121.353 36.1674 121.508 37.7515 121.596 39.3355C121.774 42.5242 121.752 45.7335 121.508 48.9016C121.441 49.6834 121.375 50.4651 121.308 51.2674C121.264 51.6171 121.242 51.9874 121.198 52.3372C121.175 52.5017 121.153 52.6663 121.131 52.8515C121.131 52.9338 121.109 53.0161 121.109 53.0778C121.087 53.2012 121.109 53.1395 121.131 52.8926C121.131 52.9543 121.109 53.0161 121.109 53.0778C120.91 54.3944 120.599 55.6904 120.223 56.9659C120.023 57.6037 119.802 58.2414 119.558 58.8586C119.425 59.1672 119.314 59.4757 119.181 59.7843C119.159 59.8666 119.115 59.9283 119.092 60.0106C119.225 59.6197 119.159 59.846 119.115 59.9489C119.026 60.1135 118.959 60.2986 118.871 60.4632C118.272 61.677 117.586 62.829 116.766 63.9399C116.544 64.2485 116.3 64.5571 116.057 64.8451C115.99 64.9274 115.857 65.0302 116.123 64.7628C116.057 64.8451 115.968 64.9274 115.901 65.0097C115.768 65.1537 115.658 65.2977 115.525 65.4417C115.015 65.9971 114.483 66.5114 113.907 67.0257C113.619 67.2726 113.331 67.5195 113.021 67.7663C112.866 67.8898 112.688 67.9926 112.555 68.1161C112.843 67.8486 112.733 67.9926 112.622 68.0749C112.533 68.1366 112.445 68.1984 112.334 68.2601C111.691 68.6921 111.004 69.1035 110.295 69.4533C109.675 69.7619 109.32 70.5642 109.542 71.2019C109.63 71.4488 109.763 71.6956 109.963 71.8808C110.206 72.1277 110.76 72.3745 111.137 72.3334C112.622 72.1688 114.107 72.0865 115.591 72.1277C116.322 72.1482 117.032 72.1894 117.763 72.2511C117.94 72.2717 118.14 72.2923 118.317 72.3128C118.45 72.3334 119.115 72.4157 118.538 72.3334C118.915 72.3951 119.292 72.4362 119.669 72.498C121.109 72.7242 122.549 73.0534 123.945 73.4649C124.654 73.6706 125.364 73.8969 126.05 74.1643C126.206 74.226 126.339 74.2672 126.494 74.3289C126.582 74.37 126.671 74.3906 126.76 74.4317C126.294 74.2672 126.604 74.37 126.715 74.4112C127.07 74.5552 127.402 74.6992 127.757 74.8432C129.109 75.4398 130.416 76.0981 131.657 76.8387C132.277 77.209 132.876 77.5793 133.452 77.9908C133.607 78.0936 133.762 78.1965 133.917 78.2993C133.984 78.3611 134.072 78.4022 134.139 78.4639C133.784 78.217 133.939 78.3199 134.028 78.3816C134.36 78.6285 134.671 78.8548 134.981 79.1017C136.089 79.9657 137.152 80.912 138.127 81.8995C138.637 82.4138 139.125 82.9486 139.612 83.5041C139.701 83.6275 139.812 83.7304 139.9 83.8538C139.546 83.463 139.967 83.9361 140.033 84.039C140.255 84.327 140.476 84.615 140.698 84.903C141.629 86.1579 142.471 87.4745 143.18 88.8323C143.357 89.182 143.534 89.5318 143.69 89.8609C143.822 90.1489 143.534 89.5112 143.667 89.8198C143.712 89.9226 143.756 90.0461 143.8 90.1489C143.867 90.3135 143.933 90.4781 144 90.6427C144.31 91.3833 144.576 92.1444 144.798 92.9056C145.041 93.6874 145.994 94.2428 146.836 93.9754C147.235 93.8519 147.634 93.6256 147.833 93.2759C148.055 92.885 148.077 92.5147 148.011 92.0827C148.011 92.0622 147.944 91.6713 147.988 91.9181C148.033 92.165 147.966 91.7947 147.966 91.7741C147.944 91.6301 147.922 91.4861 147.9 91.3421C147.856 91.013 147.811 90.6838 147.789 90.3547C147.745 89.8404 147.7 89.326 147.678 88.8117C147.656 88.0094 147.678 87.1865 147.656 86.3842C147.656 85.3762 147.59 84.3887 147.479 83.3807C147.39 82.6195 147.279 81.8583 147.169 81.0972C147.102 80.6446 147.036 80.192 146.969 79.7188C146.947 79.6365 146.947 79.5542 146.925 79.4719C146.858 79.0811 146.969 79.7188 146.925 79.4719C146.903 79.2457 146.858 79.0399 146.836 78.8136C146.637 77.353 146.46 75.8718 146.415 74.3906C146.393 73.6294 146.393 72.8888 146.459 72.1277C146.482 71.7779 146.504 71.4076 146.57 71.0579C146.482 71.4899 146.615 70.8522 146.615 70.7699C146.659 70.5642 146.681 70.379 146.725 70.1733C146.858 69.5356 147.058 68.9184 147.279 68.3218C147.368 68.0544 147.479 67.7869 147.59 67.5195C147.634 67.396 147.678 67.2726 147.745 67.1698C147.767 67.0875 147.811 67.0257 147.833 66.9435C147.989 66.6143 147.767 67.108 147.833 66.964C148.365 65.8737 148.964 64.8245 149.673 63.837C149.872 63.5696 150.16 63.2816 150.337 62.9936C150.315 63.0142 150.094 63.2816 150.271 63.0759C150.337 62.9936 150.404 62.9319 150.47 62.8496C150.581 62.7262 150.692 62.6027 150.803 62.4793C151.268 61.9855 151.756 61.5124 152.288 61.0598C152.553 60.8335 152.841 60.6072 153.13 60.3809C153.351 60.2163 153.063 60.4426 153.041 60.4426C153.13 60.4015 153.196 60.3192 153.285 60.2781C153.44 60.1752 153.595 60.0723 153.728 59.9695C154.326 59.5786 154.947 59.2495 155.611 58.9409C156.232 58.6529 156.586 57.8094 156.365 57.1922C156.121 56.5133 155.523 56.1019 154.769 56.0608C153.994 56.0196 153.218 55.9579 152.443 55.8756C152.265 55.855 152.088 55.8344 151.911 55.8139C151.822 55.8139 151.733 55.7727 151.645 55.7727C152.088 55.7522 151.8 55.7933 151.667 55.7727C151.268 55.711 150.869 55.6699 150.493 55.6082C148.986 55.3613 147.501 55.0527 146.061 54.6618C145.329 54.4561 144.62 54.2504 143.911 54.0035C143.579 53.8801 143.246 53.7772 142.892 53.6538C142.847 53.6332 142.382 53.4686 142.382 53.4686C142.449 53.4892 142.515 53.5304 142.582 53.5509C142.515 53.5304 142.449 53.4892 142.382 53.4686C142.293 53.4275 142.183 53.3864 142.094 53.3452C140.698 52.7692 139.368 52.1109 138.083 51.3497C137.441 50.9588 136.798 50.568 136.2 50.1359C136.133 50.0948 136.089 50.0537 136.022 50.0125C136.399 50.2594 136.089 50.0742 136.022 50.0125C135.889 49.9097 135.734 49.8068 135.601 49.7039C135.291 49.4776 135.003 49.2308 134.715 48.9839C134.161 48.5107 133.607 48.017 133.097 47.5027C132.565 46.9678 132.1 46.3918 131.59 45.8569C131.901 46.1861 131.524 45.7746 131.458 45.6718C131.347 45.5278 131.236 45.4043 131.125 45.2603C130.881 44.9517 130.66 44.6432 130.438 44.3346C129.995 43.7174 129.596 43.0797 129.197 42.4419C128.422 41.1664 127.735 39.8498 127.092 38.4921C127.07 38.4303 127.026 38.3686 127.003 38.3069C126.981 38.2452 126.937 38.1835 126.915 38.1218C127.003 38.3275 127.026 38.3481 126.959 38.204C126.87 38.0189 126.782 37.8132 126.693 37.628C126.538 37.2577 126.383 36.8874 126.228 36.5171C125.918 35.756 125.607 34.9742 125.319 34.213C124.721 32.629 124.167 31.0449 123.613 29.4608C123.347 28.6997 122.439 28.1237 121.574 28.3911C120.688 28.6174 120.067 29.4403 120.356 30.2632C122.35 36.044 124.433 42.0099 128.311 46.9678C130.283 49.4982 132.654 51.6789 135.446 53.4686C138.083 55.1556 141.03 56.431 144.066 57.3568C147.523 58.406 151.135 58.982 154.769 59.1672C154.481 58.2003 154.215 57.2539 153.927 56.287C148.897 58.6117 145.396 63.2405 143.867 68.1984C142.936 71.2225 142.98 74.37 143.357 77.4559C143.468 78.3199 143.579 79.1634 143.712 80.0274C143.734 80.2331 143.778 80.4183 143.8 80.624C143.822 80.7063 143.823 80.7886 143.845 80.8709C143.911 81.2617 143.8 80.624 143.845 80.8914C143.911 81.2823 143.955 81.6938 144.022 82.0846C144.177 83.2984 144.332 84.5121 144.354 85.7259C144.376 86.6517 144.354 87.5774 144.376 88.5032C144.421 89.9638 144.598 91.4244 144.82 92.8851C145.883 92.6176 146.947 92.3296 148.033 92.0622C146.327 86.4665 142.781 81.4058 138.127 77.5587C133.474 73.6912 127.713 70.8727 121.596 69.7001C118.184 69.0418 114.638 68.8361 111.181 69.2476C111.47 70.2145 111.735 71.1608 112.024 72.1277C117.475 69.3504 121.153 64.3514 123.081 58.9614C124.078 56.1636 124.522 53.2629 124.765 50.3211C125.053 47.0707 125.142 43.8203 125.009 40.5699C124.854 36.8463 124.433 33.1227 123.613 29.4814C123.436 28.6997 122.394 28.1648 121.574 28.4117C120.621 28.638 120.178 29.4197 120.356 30.2632Z" fill="white"/>
</svg>
